<?xml version="1.0" standalone="no"?>
<!DOCTYPE svg PUBLIC "-//W3C//DTD SVG 20010904//EN"
 "http://www.w3.org/TR/2001/REC-SVG-20010904/DTD/svg10.dtd">
<svg version="1.0" xmlns="http://www.w3.org/2000/svg"
 width="512.000000pt" height="512.000000pt" viewBox="0 0 512.000000 512.000000"
 preserveAspectRatio="xMidYMid meet">
<metadata>
Created by potrace 1.15, written by Peter Selinger 2001-2017
</metadata>
<g transform="translate(0.000000,512.000000) scale(0.100000,-0.100000)"
fill="#000000" stroke="none">
<path d="M847 4945 c-112 -42 -207 -166 -207 -271 l0 -34 2080 0 2080 0 0
-1280 0 -1280 -1440 0 -1440 0 0 -320 0 -320 1488 2 1487 3 47 23 c60 30 120
90 150 150 l23 47 0 1535 0 1535 -23 47 c-30 60 -90 120 -150 150 l-47 23
-2005 2 c-1705 1 -2011 0 -2043 -12z m2111 -3055 c130 -79 74 -280 -78 -280
-152 0 -208 201 -78 280 43 26 113 26 156 0z"/>
<path d="M207 4305 c-88 -33 -173 -123 -196 -207 -9 -32 -11 -504 -9 -1878 l3
-1835 23 -47 c30 -60 90 -120 150 -150 l47 -23 575 0 575 0 47 23 c60 30 120
90 150 150 l23 47 0 1855 0 1855 -23 47 c-30 60 -90 120 -150 150 l-47 23
-565 2 c-467 2 -572 -1 -603 -12z m1073 -465 l0 -160 -480 0 -480 0 0 160 0
160 480 0 480 0 0 -160z m0 -640 l0 -160 -480 0 -480 0 0 160 0 160 480 0 480
0 0 -160z m-722 -1790 c130 -79 74 -280 -78 -280 -152 0 -208 201 -78 280 43
26 113 26 156 0z"/>
<path d="M2400 961 l0 -158 -49 -5 c-133 -13 -256 -136 -269 -269 l-5 -49 803
0 803 0 -5 49 c-13 133 -136 256 -269 269 l-49 5 0 158 0 159 -480 0 -480 0 0
-159z"/>
</g>
</svg>
